<?xml version="1.0" standalone="no"?>
<!DOCTYPE svg PUBLIC "-//W3C//DTD SVG 20010904//EN"
 "http://www.w3.org/TR/2001/REC-SVG-20010904/DTD/svg10.dtd">
<svg version="1.0" xmlns="http://www.w3.org/2000/svg"
 width="798.000000pt" height="798.000000pt" viewBox="0 0 798.000000 798.000000"
 preserveAspectRatio="xMidYMid meet">
<metadata>
Created by potrace 1.14, written by Peter Selinger 2001-2017
</metadata>
<g transform="translate(0.000000,798.000000) scale(0.100000,-0.100000)"
fill="#000000" stroke="none">
<path d="M3750 7944 c-320 -28 -524 -61 -765 -124 -554 -143 -1048 -391 -1510
-757 -141 -111 -485 -455 -598 -598 -479 -603 -759 -1274 -853 -2045 -22 -180
-25 -655 -5 -830 89 -786 375 -1481 858 -2085 106 -132 350 -384 488 -505 610
-530 1362 -859 2190 -956 183 -22 649 -25 825 -6 936 101 1755 485 2408 1126
663 651 1060 1464 1168 2391 22 187 25 631 6 815 -63 591 -247 1147 -549 1650
-269 450 -668 881 -1099 1187 -562 400 -1222 648 -1919 723 -102 11 -564 21
-645 14z m555 -519 c522 -55 973 -198 1426 -450 499 -278 935 -702 1238 -1203
250 -414 413 -883 478 -1377 21 -164 24 -600 5 -755 -90 -728 -354 -1343 -810
-1890 -86 -104 -318 -334 -425 -423 -486 -403 -1069 -659 -1747 -768 -162 -26
-642 -38 -800 -20 -468 53 -848 164 -1250 366 -335 168 -590 348 -843 594
-576 562 -931 1272 -1043 2086 -22 162 -26 612 -6 780 79 667 366 1338 782
1825 102 120 316 334 434 437 171 147 425 312 669 434 369 186 850 324 1277
368 140 14 464 12 615 -4z"/>
<path d="M3725 7133 c-628 -59 -1254 -309 -1731 -691 -458 -367 -825 -886
-1017 -1438 -83 -239 -167 -663 -167 -845 l0 -46 107 -6 c58 -4 134 -7 167 -7
113 0 158 -26 172 -99 7 -35 -17 -85 -52 -107 -22 -15 -181 -29 -371 -33 -29
-1 -30 -20 -3 -222 60 -447 179 -816 378 -1172 518 -924 1408 -1506 2497
-1632 189 -22 172 -27 177 55 3 63 7 74 36 102 77 78 182 11 182 -117 0 -31 5
-47 15 -51 8 -3 63 -1 122 5 920 96 1690 509 2245 1204 335 420 557 919 648
1459 24 141 42 330 35 351 -7 16 -105 26 -255 28 -111 0 -148 14 -173 62 -24
46 -17 94 18 130 33 33 50 36 251 43 l172 7 -4 36 c-56 532 -139 841 -323
1211 -171 341 -350 591 -611 851 -458 454 -1024 750 -1675 874 -135 26 -362
55 -427 55 l-38 0 0 -206 c0 -132 -4 -213 -11 -227 -34 -66 -86 -89 -141 -63
-64 30 -68 49 -68 285 l0 211 -57 -2 c-32 -1 -76 -3 -98 -5z m675 -738 c411
-47 725 -131 1016 -269 234 -112 388 -237 452 -366 42 -84 45 -185 8 -258 -37
-73 -113 -137 -224 -189 -53 -25 -98 -47 -100 -49 -2 -1 -8 -49 -13 -106 -5
-56 -16 -130 -24 -163 -38 -148 -144 -302 -297 -433 l-88 -75 -31 -101 c-40
-131 -92 -256 -136 -329 l-35 -58 40 -82 c22 -45 45 -99 52 -120 6 -21 22 -44
34 -52 12 -8 123 -52 246 -99 330 -123 671 -252 788 -298 l102 -40 0 -141 c0
-368 -51 -701 -157 -1032 -52 -162 -120 -339 -156 -412 l-26 -50 -118 -31
c-65 -18 -275 -70 -468 -117 -192 -47 -412 -100 -488 -119 -86 -21 -136 -29
-134 -22 3 7 72 113 154 236 313 469 573 879 573 901 0 8 -49 81 -109 162 -60
81 -112 155 -115 164 -8 20 12 94 32 116 8 9 58 31 111 47 53 16 103 34 111
40 13 8 1 38 -74 188 l-89 179 -75 27 c-41 14 -76 25 -78 24 -1 -2 -7 -48 -14
-103 -54 -467 -263 -1014 -600 -1570 -171 -282 -433 -667 -470 -690 -17 -10
-37 7 -96 85 -177 233 -470 712 -623 1018 -181 362 -327 803 -367 1107 -21
168 -14 159 -105 124 l-75 -29 -87 -177 c-48 -97 -84 -180 -79 -184 4 -4 47
-19 96 -33 106 -30 133 -47 151 -89 29 -71 31 -66 -76 -208 -55 -74 -109 -148
-120 -166 l-20 -31 39 -64 c86 -140 306 -480 498 -770 112 -169 204 -310 204
-313 0 -3 -3 -4 -7 -2 -5 3 -154 39 -333 82 -351 82 -809 197 -851 213 -21 9
-36 33 -74 124 -196 461 -284 882 -285 1346 l0 163 56 25 c30 13 171 67 312
120 141 53 375 141 518 196 l262 100 17 46 c10 26 35 84 55 128 l38 82 -39 68
c-45 80 -97 211 -135 339 -25 88 -28 91 -81 130 -78 57 -211 200 -256 276 -46
78 -84 193 -92 280 -3 35 -8 88 -11 117 l-6 53 -95 46 c-177 86 -257 187 -256
324 0 91 34 161 120 251 166 172 495 329 888 423 160 39 400 81 531 94 159 15
636 13 784 -4z"/>
<path d="M3805 6174 c-511 -28 -1055 -183 -1330 -379 -70 -50 -172 -151 -162
-161 3 -4 28 2 54 14 148 62 430 137 667 177 357 59 669 80 1071 72 592 -13
1072 -88 1444 -228 62 -23 114 -39 117 -36 3 2 -20 32 -51 65 -192 208 -698
396 -1225 456 -138 16 -459 27 -585 20z"/>
<path d="M3510 5644 c-170 -20 -309 -38 -440 -60 -172 -28 -447 -91 -455 -104
-7 -11 20 -16 215 -39 204 -25 458 -47 695 -61 195 -12 762 -6 1075 11 281 15
780 74 763 90 -13 11 -246 66 -398 94 -351 63 -411 68 -935 70 -267 2 -501 1
-520 -1z"/>
<path d="M3573 5225 c-29 -15 -64 -40 -77 -56 -23 -27 -30 -29 -90 -29 l-65 0
-10 -37 c-16 -56 -13 -238 5 -313 53 -227 229 -407 459 -471 100 -27 265 -30
370 -5 180 43 343 172 423 336 62 125 75 191 70 335 -3 66 -9 128 -13 138 -6
15 -23 17 -130 17 -67 0 -136 -3 -152 -6 l-30 -6 19 -71 c22 -83 20 -183 -7
-257 -36 -104 -123 -194 -225 -235 -66 -26 -198 -24 -272 4 -110 42 -205 156
-226 271 -12 63 -8 70 34 58 48 -13 120 22 146 72 28 52 21 146 -15 193 -61
80 -135 102 -214 62z"/>
<path d="M2669 5209 c-5 -66 24 -187 64 -262 40 -76 169 -198 323 -305 65 -45
119 -80 121 -78 2 2 -12 39 -31 83 -52 117 -59 163 -54 352 l3 167 -200 23
c-110 13 -206 26 -212 29 -7 2 -13 -2 -14 -9z"/>
<path d="M5085 5191 l-200 -25 3 -172 c4 -188 -1 -222 -59 -358 -16 -37 -29
-70 -29 -72 0 -8 113 67 189 125 101 76 202 176 240 236 18 28 40 79 51 115
22 73 30 172 15 175 -5 1 -100 -10 -210 -24z"/>
<path d="M3160 4307 c0 -24 81 -171 131 -238 181 -245 442 -370 739 -356 139
7 231 31 360 94 81 40 109 61 191 143 52 52 112 121 133 152 38 59 117 210
112 215 -2 2 -72 -30 -157 -71 -289 -139 -438 -179 -674 -179 -241 -1 -393 39
-682 178 -86 41 -153 68 -153 62z"/>
<path d="M3207 3730 c-34 -78 -51 -158 -51 -231 0 -63 5 -86 28 -130 26 -53
312 -472 371 -544 l30 -37 158 235 c88 129 160 243 160 252 2 13 -12 21 -51
31 -202 53 -400 189 -579 399 l-51 60 -15 -35z"/>
<path d="M4677 3672 c-114 -133 -215 -216 -345 -281 -76 -39 -216 -91 -242
-91 -10 0 -21 -4 -25 -10 -5 -9 179 -290 287 -438 l46 -64 55 74 c101 138 305
443 335 503 16 33 33 74 37 92 11 52 -35 262 -65 296 -4 4 -41 -32 -83 -81z"/>
<path d="M5599 3247 c5 -13 39 -92 75 -175 36 -84 66 -157 66 -161 0 -5 -72
-30 -160 -57 -109 -33 -159 -52 -156 -60 3 -7 36 -55 73 -106 105 -142 133
-185 133 -204 0 -20 -60 -116 -298 -478 -89 -137 -162 -250 -160 -251 4 -5
481 113 497 123 20 11 105 232 152 397 68 234 113 500 126 741 5 112 5 121
-13 128 -71 28 -334 126 -338 126 -3 0 -2 -10 3 -23z"/>
<path d="M2197 3200 c-86 -32 -161 -61 -165 -64 -10 -6 4 -247 23 -386 33
-236 95 -475 187 -716 27 -73 58 -140 67 -148 10 -9 116 -41 237 -71 217 -54
254 -61 254 -48 0 3 -76 122 -169 262 -93 141 -196 300 -229 355 -72 117 -78
90 62 281 52 72 92 133 88 137 -4 3 -54 20 -112 38 -213 64 -202 59 -195 89 4
14 34 89 67 166 33 77 62 146 65 153 8 20 -14 14 -180 -48z"/>
<path d="M3303 2760 c43 -138 229 -526 344 -718 53 -90 69 -110 75 -95 7 18
76 458 85 545 5 41 1 54 -27 98 -26 41 -35 49 -45 38 -6 -7 -44 -55 -84 -105
-40 -51 -76 -93 -79 -93 -4 0 -60 69 -124 153 -151 196 -151 195 -145 177z"/>
<path d="M4558 2618 c-58 -73 -119 -145 -135 -160 l-29 -28 -39 52 c-22 29
-59 76 -82 106 l-41 53 -39 -51 -39 -51 48 -282 c56 -332 56 -333 68 -321 59
59 410 769 398 805 -2 6 -51 -50 -110 -123z"/>
</g>
</svg>
